<svg width="252" height="95" viewBox="0 0 252 95" fill="none" xmlns="http://www.w3.org/2000/svg">
<g clip-path="url(#clip0_2110_3)">
<path d="M64.2829 43.9936C64.2829 43.9936 64.2829 44.2151 64.2829 44.3627C64.0975 44.8425 64.1346 45.3223 64.2829 45.8022C64.2829 46.0236 64.2829 46.2451 64.2829 46.4296C64.0975 47.1678 64.1346 47.8691 64.2829 48.6073C64.2829 48.9764 64.2829 49.3455 64.2829 49.6777C64.2087 49.8253 64.2087 49.936 64.2829 50.0837C64.2829 50.2313 64.2829 50.4158 64.2829 50.5635C64.1717 51.7446 64.2829 52.9257 64.5424 54.0699C64.5424 54.2175 64.5424 54.4021 64.5795 54.5497C64.5795 56.063 64.802 57.5763 65.0986 59.0527C65.0986 59.8647 65.0986 60.6767 65.0986 61.4887C65.0245 61.5994 65.0245 61.747 65.0986 61.8578C65.0986 62.0423 65.0986 62.19 65.0986 62.3745C65.0986 62.4483 65.0986 62.5221 65.0986 62.596C65.0986 63.5556 65.0986 64.5153 65.0615 65.4749C64.7649 65.9916 64.9503 66.5822 64.8761 67.1358C64.7278 68.3169 64.4312 69.498 64.9874 70.6791C65.4694 71.7126 65.3211 72.783 65.0986 73.8533C64.9874 74.001 64.8761 74.1486 64.7649 74.2963C64.5054 74.4439 64.2829 74.6654 64.2087 74.9975C64.2087 75.0344 64.1346 75.0714 64.1346 75.1452C63.875 75.2559 63.7638 75.4774 63.6155 75.6988C63.6155 75.6988 63.5784 75.6988 63.5413 75.7726C63.4301 75.7726 63.393 75.8465 63.393 75.9572C63.2818 76.031 63.2076 76.1417 63.0964 76.2156C62.7627 76.2894 62.5773 76.5108 62.3919 76.7692H62.3548C62.0953 76.7692 61.9469 76.9537 61.7986 77.1383C61.7986 77.1383 61.7615 77.1383 61.7245 77.1752C61.2795 77.249 60.9087 77.4705 60.575 77.8027C60.4638 77.8396 60.3896 77.9134 60.2784 77.9503C60.0559 77.9503 59.8335 78.0979 59.6852 78.2456C59.4998 78.3563 59.3144 78.467 59.129 78.5778C59.0548 78.5778 59.0177 78.5778 58.9807 78.6516C58.8694 78.7254 58.7582 78.7623 58.6099 78.8361C58.3874 78.8361 58.1649 78.9468 58.0166 79.1683C57.72 79.3529 57.4234 79.5743 57.1267 79.7589C57.0526 79.7589 56.9784 79.7589 56.9784 79.8696C56.9413 79.9065 56.8672 79.9434 56.8301 79.9803C56.7189 79.9803 56.6076 79.9803 56.5706 80.1279C56.5706 80.1279 56.5335 80.128 56.4964 80.1649C56.311 80.1649 56.1627 80.2018 56.0885 80.4232H56.0515C55.8661 80.4232 55.7178 80.497 55.6807 80.6816C55.4582 80.7923 55.2357 80.94 55.0503 81.0507C54.7537 81.0138 54.5312 81.1983 54.3088 81.3091C53.7897 81.6043 53.3447 82.0472 52.7886 82.3056C50.7122 83.1914 48.6728 84.1142 46.5223 84.8524C46.2998 84.8524 46.0774 84.8524 45.892 84.8524C44.5942 83.9665 45.0762 81.7889 46.3369 81.2721C46.4852 81.1983 46.6706 81.1245 46.7077 80.94C46.8189 80.8661 46.9302 80.8292 47.0043 80.7554C47.2268 80.7554 47.3751 80.6447 47.4122 80.4232C47.7459 80.2756 47.8942 79.9434 48.1537 79.685C48.4504 79.4636 48.7099 79.2421 49.0066 79.0207C49.1178 78.9469 49.229 78.873 49.3403 78.7992C49.4144 78.7992 49.4515 78.7992 49.4515 78.7254C49.674 78.5039 49.9706 78.3563 50.2672 78.2456C50.4897 78.2456 50.6009 78.0979 50.6751 77.9134C50.6751 77.9134 50.7492 77.8765 50.7863 77.8396C51.0829 77.6919 51.3425 77.5443 51.5279 77.249C51.7504 77.1383 51.9728 76.9906 52.1953 76.8799C52.5661 76.8799 52.7886 76.5846 53.0481 76.3632C53.1593 76.2894 53.2706 76.2155 53.3818 76.1417C53.7526 76.0679 54.0863 75.8834 54.2717 75.5512C54.42 75.4405 54.5683 75.3666 54.7537 75.2559C54.902 75.2559 54.9762 75.219 55.0133 75.0714C55.0874 75.0344 55.1245 74.9975 55.1987 74.9606C55.9402 74.5546 56.7189 74.2963 57.3492 73.7057C57.4604 73.6319 57.6088 73.595 57.72 73.5212C57.8683 73.5212 57.9425 73.4473 57.9795 73.3366C58.1279 73.2628 58.2762 73.1521 58.4616 73.0782C58.684 73.0413 58.9436 73.0044 59.0177 72.7091C59.0548 72.7091 59.129 72.6353 59.1661 72.5984C60.5009 72.1924 60.575 72.0079 59.8705 70.9375C59.8335 70.8268 59.7964 70.753 59.7593 70.6422C59.7593 70.31 59.7593 69.9779 59.4998 69.7564C59.4998 69.6088 59.4627 69.498 59.4256 69.3504C59.4998 69.1658 59.5368 68.9813 59.3514 68.7968C59.3514 67.8002 59.3144 66.8036 59.2773 65.8071C59.4256 64.9582 59.0548 64.0723 59.2773 63.2234C59.2773 63.1127 59.3144 62.9651 59.3514 62.8543C60.0559 61.2672 59.7964 59.6432 59.4627 58.0192C59.4627 57.9085 59.4627 57.7977 59.4256 57.6501C59.4998 57.4655 59.5368 57.281 59.3144 57.1334C59.3144 57.0226 59.2773 56.9119 59.2402 56.7643C58.8323 55.251 58.3874 53.7746 57.9795 52.2613C57.9795 52.0399 57.9795 51.8184 57.9425 51.5969C58.0166 50.0837 57.9795 48.6073 57.9425 47.094C57.9425 46.4296 58.0166 45.7653 58.0166 45.1009C58.3503 43.2923 58.4245 41.4468 58.4245 39.6014C58.4245 39.4168 58.4245 39.2323 58.4245 39.0846C58.6099 38.7525 58.5357 38.3465 58.4245 38.0143C58.3133 37.4606 57.8312 37.9405 57.5346 37.7559C58.1279 37.6821 58.3874 37.313 58.3874 36.7963C58.3874 35.689 58.3874 34.5448 58.3503 33.4375C58.3503 33.216 58.3503 32.9946 58.3503 32.7731C58.5357 32.1826 58.6099 31.6289 58.3503 31.0384C58.3503 30.6693 58.3503 30.3002 58.3132 29.9311C58.3874 29.6727 58.3133 29.4144 58.0537 29.3775C57.72 29.3036 57.4234 29.3775 57.238 29.7096C57.1267 29.7466 57.0526 29.7835 56.9413 29.8204C56.6818 29.8204 56.4964 29.9311 56.3481 30.1156C56.2369 30.1526 56.1627 30.1895 56.0515 30.2633C55.7919 30.2633 55.5694 30.3371 55.4582 30.5955C55.347 30.6693 55.2357 30.7431 55.1245 30.8169C55.1245 30.8169 54.8279 30.8907 54.7166 30.9646C54.5312 30.9646 54.3829 31.0015 54.3088 31.186C54.3088 31.186 54.2717 31.186 54.2346 31.2229C53.7897 31.2967 53.4189 31.5182 53.0852 31.8135C52.9739 31.8504 52.8627 31.9242 52.7886 31.9611C52.6032 31.9611 52.4549 31.998 52.3807 32.1826C52.3436 32.1826 52.2695 32.2564 52.2324 32.2933C52.1582 32.2933 52.1211 32.2933 52.1211 32.3671C52.1211 32.3671 52.0841 32.3671 52.047 32.404C51.7133 32.4779 51.4167 32.5886 51.1942 32.8839C51.12 32.8839 51.0829 32.9577 51.0088 32.9946C50.7863 32.9946 50.5638 33.1053 50.4155 33.2899C50.1931 33.4375 50.0077 33.5851 49.7852 33.6959C49.7852 33.6959 49.4886 33.7328 49.3773 33.8435C49.229 33.8435 49.1549 33.8435 49.0807 33.9911C49.0807 34.028 49.0807 34.1019 49.0436 34.1388C49.0436 34.1388 48.747 34.1757 48.6358 34.2864C48.4875 34.2864 48.4133 34.2864 48.3762 34.4341C48.3762 34.5079 48.3021 34.5448 48.265 34.6186C47.9684 34.6555 47.7088 34.8401 47.4863 35.0246C47.1897 35.0246 46.9672 35.1722 46.8189 35.4306C46.7077 35.5044 46.5594 35.5782 46.4481 35.6152C46.2998 35.6152 46.2257 35.6152 46.1515 35.7628L45.9661 35.9104C45.7436 35.9104 45.5212 36.0581 45.4099 36.2426C45.3358 36.2795 45.2245 36.3533 45.1504 36.3903C43.5931 37.0177 41.9987 37.6452 40.4785 38.3095C39.6628 38.6786 38.7729 38.7894 38.0684 39.3799C38.0684 39.3799 37.9942 39.3799 37.9942 39.4168C37.6605 39.5276 37.3268 39.6014 37.1785 39.9705C37.1785 39.9705 37.1414 39.9705 37.1044 40.0443C36.2886 40.7087 35.3988 41.1147 34.3235 41.2254C33.5819 41.2992 32.6549 41.373 32.1729 41.8898C31.3201 42.8494 30.2819 43.2185 29.0954 43.5138C28.1685 43.7721 28.0572 44.2889 28.6875 44.9902C28.91 45.2116 29.1325 45.4331 29.355 45.6545C29.4291 45.7653 29.5033 45.876 29.5774 45.9867C29.7257 46.7987 30.319 47.4262 30.5786 48.2013C30.6527 48.4966 30.9864 48.7918 30.5786 49.0133C30.2078 49.2347 29.9853 48.9026 29.6887 48.718C29.355 48.4596 29.355 47.906 28.8359 47.7953C28.7617 47.7215 28.7246 47.6476 28.6505 47.5369C28.6505 47.3524 28.5763 47.2785 28.428 47.2785C28.3538 47.1678 28.2797 47.0571 28.2055 46.9464C28.2055 46.8725 28.2055 46.8356 28.1314 46.8356V46.7618C28.1314 46.5773 28.0572 46.4296 27.8718 46.3927C27.7977 46.282 27.6864 46.1713 27.6123 46.0605C27.6123 46.0605 27.6123 46.0605 27.6123 46.0236V45.9867C27.6123 45.9867 27.6123 45.9867 27.5752 45.9867C27.464 45.876 27.3527 45.7283 27.2415 45.6176C27.2415 45.47 27.2044 45.3592 27.0561 45.3223C26.9819 45.2116 26.8707 45.1009 26.7965 45.0271C26.8336 44.7318 26.7224 44.5472 26.4628 44.4365C26.2774 44.252 26.0921 44.0305 25.9067 43.846C25.9067 43.3292 26.1291 42.997 26.6112 42.7756C26.9449 42.628 27.2786 42.4434 27.5381 42.1112C27.5381 42.1112 27.5752 42.1112 27.6123 42.0374C28.4651 41.779 29.2437 41.3361 29.9853 40.8194C30.0224 40.7825 30.0595 40.7456 30.1336 40.7087C30.4302 40.7087 30.5415 40.5979 30.5415 40.3027C30.6156 40.2288 30.6898 40.1919 30.7639 40.1181C31.0235 40.1181 31.1347 40.0074 31.2089 39.7859C31.3201 39.749 31.3943 39.6752 31.5055 39.6383C31.6538 39.7121 31.7651 39.6014 31.9134 39.5276C33.0628 38.8263 34.1381 37.9774 35.4358 37.5714C36.1032 37.3499 36.3999 36.907 36.6594 36.3533L36.6965 36.3164C37.4381 36.095 38.0684 35.689 38.6246 35.1353C38.7729 35.0615 38.9212 34.9877 39.0324 34.9139C39.1066 34.9877 39.1437 34.9508 39.1437 34.877C39.1437 34.877 39.1808 34.877 39.2178 34.877C39.5515 34.877 39.774 34.6555 39.9594 34.3971C39.9594 34.3971 39.9965 34.3971 40.0336 34.3971C40.219 34.3971 40.3673 34.3602 40.4043 34.1388C40.5156 34.065 40.6268 33.9911 40.7381 33.9173C40.9234 33.9173 41.0718 33.8804 41.1088 33.659C41.2201 33.5851 41.3684 33.5113 41.4796 33.4744C41.8875 33.3637 42.2583 33.216 42.4807 32.8469C42.6291 32.7731 42.8144 32.6624 42.9628 32.5886C43.2594 32.5886 43.556 32.4409 43.7043 32.1457C43.8156 32.1088 43.8897 32.0349 44.001 31.998C44.2605 31.998 44.483 31.9611 44.5571 31.6658C44.6684 31.592 44.8167 31.5551 44.9279 31.4813C45.1875 31.4075 45.447 31.3337 45.5583 31.0384C45.5583 31.0384 45.5953 31.0015 45.6324 30.9646C45.7066 30.9646 45.7436 30.9646 45.7436 30.8907C45.8178 30.8907 45.892 30.8538 45.929 30.8169C46.2627 30.78 46.4852 30.5955 46.6706 30.3371C47.3009 29.968 47.9684 29.562 48.5987 29.1929C48.8582 29.2667 49.0066 29.1191 49.0807 28.8976C49.229 28.8238 49.3773 28.7131 49.5257 28.6393C49.9335 28.6024 50.2301 28.3809 50.4526 28.0856C50.4526 28.0856 50.4897 28.0856 50.5268 28.0118C50.6009 28.0487 50.638 28.0118 50.638 27.938C51.0088 27.7165 51.3796 27.4951 51.7504 27.2736C52.0099 27.3474 52.1211 27.1998 52.1953 26.9783C52.3436 26.9045 52.4919 26.7938 52.6402 26.72C53.2706 26.5354 53.7897 26.2402 54.2346 25.7972C54.3459 25.7234 54.42 25.6865 54.5312 25.6127C54.6796 25.6865 54.7908 25.6127 54.8279 25.502C54.9391 25.4651 55.0133 25.3912 55.1245 25.3543C55.3841 25.4281 55.4953 25.2436 55.5694 25.0221C55.6436 25.0221 55.6807 24.9852 55.7548 24.9483C55.9402 24.9483 56.0515 24.9483 56.0144 24.7269C56.1256 24.69 56.1998 24.6161 56.311 24.5792C56.3852 24.6531 56.3852 24.6161 56.3852 24.5423C56.4964 24.4685 56.6447 24.3947 56.756 24.3209C56.8301 24.3578 56.8672 24.3578 56.8672 24.284C56.8672 24.284 56.9043 24.284 56.9413 24.284C57.2009 24.284 57.2751 24.1363 57.3492 23.9518C57.4234 23.9518 57.4604 23.878 57.5346 23.841C57.6088 23.841 57.6458 23.841 57.6088 23.7672C57.6088 23.7672 57.6458 23.7303 57.6829 23.6934C57.9795 23.6934 58.1279 23.4719 58.2391 23.2136C58.4245 23.0659 58.647 22.9183 58.8323 22.7707C59.1661 22.7338 59.5739 22.6968 59.5368 22.3278C59.5368 21.9218 59.0548 22.0325 58.7953 22.0325C58.2391 21.9956 57.6829 21.8479 57.1267 21.7372C56.756 21.6634 56.3852 21.4419 55.9773 21.5896C55.8661 21.5896 55.7548 21.5527 55.6436 21.5157C55.3841 21.1467 55.0133 21.2205 54.6425 21.2943C54.5312 21.2943 54.42 21.2574 54.3088 21.2205C54.1975 20.9621 53.9751 20.9252 53.7526 20.999C52.047 20.4085 50.3043 19.781 48.5987 19.2274C47.3751 18.8214 46.1515 18.5261 44.9279 18.157C42.9628 17.5664 40.9605 16.939 38.9954 16.3115C37.5122 15.8317 37.1785 15.8686 36.3257 17.1235C34.2493 20.1132 31.9134 22.9183 30.0224 25.9818C28.7246 28.0856 27.5381 30.2264 25.9437 32.1088C24.9426 33.2899 23.7932 34.2864 22.4584 35.1353C20.7157 36.2426 19.3067 37.719 18.6764 39.7859C18.6022 40.0443 18.5651 40.3027 18.3797 40.5241C17.2303 41.8159 16.155 43.1447 14.9685 44.3996C14.1899 45.2485 13.1887 45.8022 11.9652 45.7653C10.7045 45.7283 9.96292 44.8794 10.0371 43.5876C10.1112 42.4803 10.6674 41.6683 11.2236 40.7825C12.7067 38.4941 14.1528 36.2057 15.8955 34.065C16.4887 33.3268 17.1561 32.6993 17.8236 32.0349C20.0112 29.8204 21.8651 27.3474 23.682 24.8376C25.7584 21.9587 27.7606 19.0797 29.9111 16.2746C30.319 15.7579 30.6898 15.2781 31.0977 14.7613C31.3201 14.6506 31.5797 14.5399 31.6167 14.2077C31.6167 14.1339 31.6909 14.0969 31.728 14.0231C31.8763 14.0231 31.9134 13.9124 31.9134 13.7648C31.9875 13.654 32.0617 13.5433 32.1358 13.4326C32.3954 13.3219 32.6179 13.1742 32.6179 12.842C32.6549 12.8051 32.692 12.7313 32.7291 12.6944C32.9887 12.5837 33.137 12.3991 33.2111 12.1407C33.3594 11.9193 33.5078 11.6978 33.6931 11.4764C33.8785 11.4764 33.9527 11.4026 33.9527 11.218C34.0269 11.1073 34.1381 11.0335 34.2122 10.9227C34.583 10.7751 34.7684 10.3691 35.2134 10.3322C36.2886 10.2584 37.3639 10.1845 38.365 10.4798C40.6268 11.1442 42.6291 12.3622 44.9279 13.0266C46.2257 13.3957 47.4493 14.06 48.747 14.5399C50.6009 15.2042 52.529 15.7948 54.3829 16.4592C56.2369 17.1235 58.0537 17.8617 59.9076 18.563C60.6863 18.8583 61.5762 19.0797 62.1694 19.5965C62.6514 20.0025 63.0964 20.187 63.6526 20.2977C63.9121 20.3346 64.1346 20.3716 64.3941 20.4085C66.3222 20.9252 67.9537 22.1432 69.8447 22.6968C72.2177 23.3981 74.4424 24.6161 76.8154 25.2805C77.4828 25.4651 78.1132 25.7972 78.7064 26.0925C78.8918 26.1663 79.1143 26.3509 79.0401 26.6093C78.966 26.9045 78.6693 26.7938 78.4839 26.7938C76.9266 26.8676 75.4064 26.5723 73.9604 25.908C73.8862 25.908 73.8491 25.8342 73.775 25.7972C73.1817 25.1698 72.4031 25.096 71.6244 25.1329C70.957 25.1698 70.2896 25.3174 69.7705 24.7269C69.6222 24.5792 69.3256 24.5792 69.066 24.5423C68.4357 24.5054 67.9166 24.3578 67.3975 23.9149C66.6559 23.2505 65.6919 23.0659 64.6907 23.2874C64.4683 23.3243 64.1346 23.3981 64.1346 23.6934C64.1346 24.9483 63.9492 26.2032 64.2829 27.4582C64.2829 27.7165 64.2829 27.9749 64.2829 28.2333C64.2087 29.3036 64.1346 30.374 64.3941 31.4075C64.3941 31.9611 64.3941 32.5148 64.3941 33.0684C64.2087 34.6924 64.3941 36.3533 64.357 37.9774C64.357 39.2692 64.357 40.561 64.357 41.8529C64.357 42.2219 64.357 42.591 64.357 42.9232V42.9601C64.357 43.2554 64.357 43.5507 64.357 43.8091V43.846L64.2829 43.9936Z" fill="#A01D25"/>
<path d="M40.2931 63.5925C40.6639 63.9985 41.0347 64.4045 41.5538 64.6998C41.9246 64.9213 42.2212 64.9582 42.4066 64.5522C42.6291 64.1093 42.8886 64.22 43.1482 64.4783C43.7414 65.032 44.001 65.6964 43.7785 66.4715C43.3706 67.9847 42.6661 69.3873 41.3684 70.2362C39.6999 71.3435 38.2167 72.6353 36.6965 73.9272C34.9538 75.4035 32.9516 76.5108 30.7639 77.3228C30.1707 77.5443 29.5033 77.9872 28.9471 77.249C28.428 76.5108 28.4651 75.2928 29.0213 74.6654C31.5426 71.7864 34.3976 69.3135 37.5122 67.0989C38.2909 66.5453 39.0324 66.0285 39.774 65.438C40.7751 64.6629 40.7381 64.626 40.219 63.5925H40.2931Z" fill="#A01D25"/>
<path d="M209.705 56.9119C208.926 56.9119 208.11 56.9119 207.332 56.9119C206.627 56.9119 206.405 56.5797 206.738 55.9892C206.887 55.6939 206.924 55.3986 206.924 55.0664C206.924 51.7815 206.924 48.5335 206.924 45.2485C206.924 44.8425 206.85 44.3996 206.627 44.0674C206.331 43.5876 206.59 43.2185 207.035 43.2185C210.075 43.2185 213.227 42.7756 215.934 44.8425C217.677 46.1713 218.455 47.9429 218.492 50.0468C218.566 54.2544 215.674 56.5428 211.855 56.8381C211.151 56.875 210.409 56.8381 209.705 56.8381V56.9119ZM209.037 49.9729C209.037 51.4862 209.037 52.9995 209.037 54.5497C209.037 54.8819 209 55.3986 209.519 55.3986C211.077 55.4724 212.634 55.4724 214.043 54.6973C216.972 53.1102 216.898 48.1644 214.525 46.2082C213.153 45.1009 211.596 44.8056 209.89 44.8056C209.26 44.8056 209 44.9902 209 45.6545C209 47.094 209 48.5335 209 50.0098L209.037 49.9729Z" fill="#A01D25"/>
<path d="M139.849 57.0595C138.996 57.0595 138.366 57.0595 137.735 57.0595C137.142 57.0595 136.92 56.6905 137.179 56.2106C137.365 55.8415 137.402 55.4724 137.402 55.0664C137.402 51.966 137.402 48.8287 137.439 45.7283C137.439 45.2116 137.327 44.6949 137.105 44.252C136.845 43.7352 136.994 43.44 137.587 43.44C138.885 43.44 140.145 43.4031 141.443 43.5138C143.075 43.6614 144.224 44.8056 144.335 46.2451C144.372 46.7987 144.261 47.3893 143.89 47.7584C143.297 48.3489 143.594 48.6442 144.113 48.9764C145.299 49.7515 145.967 50.8588 146.041 52.2613C146.226 54.6604 144.854 56.3583 142.518 56.9119C141.554 57.1334 140.59 57.0595 139.849 57.0595ZM140.627 55.5463C140.627 55.5463 140.924 55.5463 141.072 55.5463C143 55.3986 144.039 54.1437 143.89 52.2613C143.705 50.2682 141.703 49.3455 139.96 49.4931C139.515 49.53 139.478 49.8622 139.478 50.2682C139.478 51.6708 139.478 53.0733 139.478 54.4759C139.478 55.5094 139.552 55.5832 140.627 55.5463ZM139.515 46.3189C139.515 47.906 139.701 48.0167 141.184 47.6107C141.925 47.4262 142.296 46.8356 142.148 46.1343C141.999 45.3962 141.072 44.8425 140.034 44.9163C139.144 44.9902 139.589 45.6545 139.515 46.0974C139.515 46.1713 139.515 46.2451 139.515 46.3189Z" fill="#A01D25"/>
<path d="M110.186 53.5901C110.334 54.4759 109.964 55.4724 110.483 56.469C110.668 56.8381 110.334 57.0595 109.964 57.0965C109.333 57.0965 108.74 57.1334 108.11 57.0965C107.628 57.0965 107.479 56.6905 107.776 56.2845C107.998 55.9892 108.035 55.657 108.035 55.3248C108.035 51.966 108.035 48.6073 108.035 45.2116C108.035 44.9163 107.924 44.6949 107.776 44.4734C107.405 43.9198 107.553 43.5876 108.184 43.5138C108.74 43.4769 109.333 43.44 109.889 43.4769C110.483 43.4769 110.705 43.9198 110.371 44.4365C110.223 44.658 110.149 44.8794 110.149 45.1009C110.149 46.2082 110.149 47.3155 110.149 48.4227C110.149 48.8657 110.334 49.0871 110.816 49.0871C112.114 49.0871 113.449 49.0871 114.747 49.0871C115.303 49.0871 115.488 48.8657 115.488 48.3489C115.488 47.2785 115.488 46.2451 115.488 45.1747C115.488 44.8794 115.34 44.658 115.229 44.4365C114.969 43.9198 115.155 43.5507 115.711 43.5138C116.304 43.4769 116.897 43.5138 117.49 43.5138C117.973 43.5138 118.269 43.846 117.973 44.252C117.416 45.0271 117.639 45.876 117.602 46.688C117.602 49.6038 117.602 52.4828 117.602 55.3986C117.602 55.8046 117.75 56.0999 117.935 56.4321C118.195 56.8381 118.01 57.1334 117.565 57.1703C116.897 57.2072 116.23 57.2072 115.562 57.1703C115.117 57.1334 114.858 56.8012 115.155 56.3952C115.488 55.9154 115.488 55.4355 115.451 54.9188C115.451 53.8115 115.451 52.7042 115.451 51.597C115.451 51.0802 115.303 50.8588 114.71 50.8588C113.449 50.8588 112.188 50.8588 110.928 50.8588C110.371 50.8588 110.112 51.0433 110.149 51.6339C110.149 52.2982 110.149 52.9626 110.149 53.7377L110.186 53.5901Z" fill="#A01D25"/>
<path d="M51.9728 41.8898C51.9728 41.8898 51.8245 42.0374 51.7504 42.1112C51.4537 42.4065 51.12 42.7018 50.8234 42.997L50.7863 43.034C50.3043 43.2923 49.8223 43.5507 49.3403 43.846C47.8571 44.8056 46.4852 45.9867 44.965 46.8356C43.4448 47.6845 41.8504 48.3858 40.4785 49.4931C39.4032 50.3789 38.2909 51.2279 36.6965 50.8957C36.3257 50.8218 35.8808 51.0433 35.5471 51.3386C35.3246 51.56 35.065 51.7446 34.8055 51.966C33.5448 52.9995 32.3212 52.815 31.5055 51.4862C31.246 51.0433 31.0235 50.4158 31.5055 50.0837C32.0617 49.7515 32.6549 49.4193 33.2111 49.0871C34.7684 48.2751 36.5111 47.8691 37.9942 46.9464C40.2931 45.5069 42.7403 44.252 45.2245 43.1447C45.7066 42.9232 46.2257 42.7756 46.4852 42.2589C46.5965 42.2589 46.7077 42.185 46.7818 42.1481C46.8931 42.1481 47.0414 42.1481 47.1156 42.0743C50.0818 40.2288 53.3077 38.8632 56.4222 37.313C56.6447 37.2023 56.8672 37.0177 57.0526 37.313C57.2009 37.5714 56.8672 37.6452 56.793 37.8297C56.3852 38.5679 55.4211 38.5679 54.9391 39.1954C54.9391 39.1954 54.865 39.2323 54.865 39.2692C54.6425 39.2323 54.5312 39.4168 54.3829 39.5276C53.493 40.1919 52.8998 41.2254 51.8987 41.779L51.9728 41.8898Z" fill="#A01D25"/>
<path d="M129.875 49.3086C129.875 48.0536 129.875 46.7987 129.875 45.5438C129.875 45.064 129.875 44.6211 129.615 44.2151C129.356 43.8091 129.578 43.4769 130.06 43.44C130.728 43.4031 131.395 43.44 132.062 43.44C132.507 43.44 132.656 43.8091 132.47 44.1043C131.988 44.7687 132.136 45.47 132.136 46.1713C132.136 49.0871 132.136 51.966 132.174 54.8819C132.174 55.3986 132.174 55.8784 132.507 56.3583C132.767 56.6905 132.544 57.0226 132.174 57.0595C131.469 57.0965 130.728 57.3917 130.097 56.7643C129.763 56.469 129.467 56.7643 129.133 56.875C127.39 57.6501 125.277 57.3548 123.942 56.0999C123.126 55.3248 122.83 54.3283 122.83 53.221C122.83 50.748 122.83 48.2751 122.83 45.7653C122.83 45.2485 122.83 44.7687 122.533 44.2889C122.199 43.8091 122.459 43.44 123.052 43.4031C123.571 43.4031 124.09 43.4031 124.61 43.4031C125.351 43.4031 125.537 43.7721 125.166 44.3996C125.055 44.6211 124.943 44.8425 124.943 45.1009C124.943 47.6476 124.943 50.1944 124.943 52.7781C124.943 53.0733 124.943 53.3686 125.017 53.6639C125.203 55.0295 126.241 55.7677 127.835 55.6201C129.096 55.5094 130.06 54.7712 129.949 53.4055C129.912 52.7042 129.949 52.0399 129.949 51.3386C129.949 50.6742 129.949 50.0098 129.949 49.3455C129.949 49.3455 129.912 49.3455 129.875 49.3455V49.3086Z" fill="#A01D25"/>
<path d="M164.321 43.3661C165.581 43.44 166.657 43.2554 167.658 43.7352C168.844 44.2889 169.549 45.3223 169.512 46.5034C169.475 47.6845 168.696 48.6811 167.472 49.124C166.137 49.6038 166.1 49.6408 166.99 50.8219C168.325 52.5566 169.475 54.4759 171.069 56.063C171.514 56.5059 171.366 56.875 170.772 56.9857C170.105 57.1334 169.4 57.0965 168.696 56.9857C168.288 56.9488 167.991 56.6905 168.14 56.2106C168.214 55.9523 168.066 55.7308 167.917 55.5463C166.99 54.2544 166.063 52.9626 165.173 51.6339C165.062 51.4493 164.914 51.3017 164.691 51.4124C164.506 51.4862 164.506 51.6708 164.506 51.8553C164.506 53.0364 164.506 54.2175 164.506 55.3986C164.506 55.657 164.654 55.8415 164.766 56.063C165.025 56.5797 164.84 56.9857 164.284 57.0226C163.727 57.0595 163.134 57.0595 162.578 57.0226C162.022 56.9857 161.836 56.5428 162.17 56.0999C162.393 55.8046 162.467 55.4724 162.467 55.1403C162.467 51.8922 162.43 48.6442 162.43 45.4331C162.43 44.9902 162.355 44.6211 162.133 44.252C161.762 43.6614 161.91 43.4031 162.652 43.4031C163.319 43.4031 163.987 43.4031 164.432 43.4031L164.321 43.3661ZM165.433 47.8322C166.916 47.8322 167.695 46.7987 167.101 45.6914C166.731 44.9902 165.989 44.8794 165.248 44.8425C164.691 44.8056 164.395 44.9532 164.432 45.5807C164.432 46.0236 164.432 46.4665 164.432 46.9094C164.432 47.7953 164.543 47.8691 165.433 47.8691V47.8322Z" fill="#A01D25"/>
<path d="M225.241 52.372C225.241 53.1471 225.241 53.8853 225.241 54.6604C225.241 55.1772 225.389 55.3986 225.982 55.3986C227.094 55.3986 228.133 55.2879 229.097 54.6604C229.467 54.4021 229.875 54.3282 230.246 54.6973C230.617 55.1033 230.357 55.3617 230.135 55.7308C229.875 56.1737 229.505 56.469 229.245 56.9119C229.134 57.1334 228.874 57.2072 228.652 57.1703C227.02 56.875 225.389 57.1334 223.757 57.0226C223.535 57.0226 223.312 57.0226 223.09 56.9488C222.756 56.8381 222.497 56.5797 222.756 56.2106C223.016 55.7677 223.016 55.3248 223.016 54.845C223.016 51.6339 223.016 48.4227 223.016 45.2116C223.016 44.9163 222.905 44.658 222.756 44.3627C222.46 43.6983 222.682 43.3292 223.424 43.2923C224.981 43.2923 226.538 43.2923 228.096 43.2923C228.615 43.2923 229.801 44.5103 229.764 45.0271C229.764 45.5069 229.097 45.876 228.652 45.5438C227.762 44.9163 226.761 44.9902 225.723 44.9532C225.5 44.9532 225.203 44.9532 225.203 45.2485C225.203 45.9129 225.166 46.5773 225.203 47.2416C225.203 47.5738 225.5 47.6476 225.797 47.6476C226.946 47.5738 228.096 47.8322 229.245 47.3524C229.727 47.1678 230.135 47.3524 230.098 48.0167C230.098 48.0167 230.098 48.0536 230.098 48.0905C230.024 48.5704 230.283 49.124 229.949 49.53C229.505 50.0468 229.06 49.4931 228.578 49.4193C227.614 49.2717 226.65 49.4193 225.685 49.4193C225.241 49.4193 225.166 49.7146 225.166 50.0468C225.166 50.8588 225.166 51.6708 225.166 52.4828L225.241 52.372Z" fill="#A01D25"/>
<path d="M93.6861 50.0098C93.7603 53.0733 95.3176 55.1772 98.1726 55.7677C99.6187 56.063 101.065 55.8415 102.251 54.7343C102.4 54.5866 102.548 54.4759 102.696 54.3652C102.993 54.1806 103.252 54.0699 103.586 54.3652C103.92 54.6235 103.957 54.9557 103.771 55.2879C103.512 55.8415 103.178 56.3583 102.844 56.875C102.622 57.2072 102.362 57.4286 101.918 57.1703C101.658 57.0226 101.361 57.0595 101.065 57.1703C99.6928 57.5394 98.2468 57.5763 96.8749 57.281C94.4277 56.7274 92.6479 55.2141 91.9063 52.7781C90.9052 49.4931 92.0176 46.3558 94.7614 44.5103C96.2445 43.5138 97.876 43.2185 99.6187 43.4031C100.509 43.4769 101.361 43.6614 102.251 43.6983C102.882 43.6983 103.883 45.7283 103.549 46.2451C103.252 46.6511 102.882 46.7618 102.437 46.3927C101.843 45.9129 101.287 45.4331 100.509 45.2116C96.9119 44.0674 93.612 46.4296 93.6861 50.1575V50.0098Z" fill="#A01D25"/>
<path d="M153.197 43.4031C153.642 43.4031 154.087 43.4769 154.532 43.4031C155.644 43.1816 156.386 43.6245 156.942 44.5472C157.127 44.8425 157.387 45.1009 157.053 45.47C156.72 45.8391 156.312 45.876 155.904 45.6176C155.162 45.1009 154.309 45.0271 153.457 44.9902C152.9 44.9902 152.641 45.1747 152.641 45.7653C152.641 47.7953 152.641 47.7953 154.68 47.7953C155.348 47.7953 156.052 47.7953 156.682 47.4631C157.09 47.2416 157.535 47.3893 157.535 47.9798C157.535 48.0906 157.535 48.2382 157.535 48.3489C157.572 49.7515 157.535 49.7515 156.163 49.4931C155.125 49.2717 154.05 49.4193 152.975 49.4193C152.641 49.4193 152.53 49.7146 152.53 50.0098C152.53 51.6708 152.604 53.3317 152.641 55.0295C152.641 55.3986 152.863 55.5093 153.234 55.5093C154.347 55.5093 155.459 55.5094 156.423 54.7712C156.757 54.5128 157.164 54.4021 157.572 54.7712C157.98 55.1772 157.721 55.4724 157.498 55.8046C157.202 56.2106 156.905 56.5797 156.608 56.9488C156.46 57.1334 156.275 57.2441 156.015 57.2072C154.309 56.875 152.604 57.2072 150.935 57.0965C150.12 57.0595 149.934 56.7643 150.342 56.063C150.49 55.7677 150.564 55.4724 150.564 55.1403C150.564 51.8922 150.564 48.6442 150.564 45.4331C150.564 45.0271 150.416 44.7318 150.268 44.3996C149.934 43.7352 150.12 43.4769 150.824 43.4769C151.603 43.4769 152.418 43.4769 153.197 43.4769V43.4031Z" fill="#A01D25"/>
<path d="M197.506 53.3686C195.8 53.3686 195.318 53.8484 195.281 55.5094C195.281 55.7308 195.392 55.9154 195.467 56.1368C195.652 56.6166 195.467 56.9119 194.947 56.9488C194.391 56.9488 193.798 56.9488 193.242 56.9488C192.723 56.9119 192.5 56.469 192.797 56.1737C193.687 55.251 193.909 53.9961 194.317 52.8519C195.17 50.3789 195.874 47.8322 196.69 45.3593C196.838 44.9533 196.913 44.5842 196.653 44.1782C196.393 43.8091 196.579 43.4769 196.987 43.3661C197.988 43.0709 198.655 43.0709 198.952 44.252C199.916 47.8322 200.954 51.3755 201.955 54.9188C202.066 55.3617 202.289 55.7308 202.586 56.063C202.956 56.5059 202.845 56.8381 202.252 56.9119C201.622 56.9857 200.954 56.9857 200.324 56.9488C199.656 56.9488 199.545 56.6535 199.731 56.0261C200.027 55.1403 199.619 54.3652 199.286 53.5532C199.211 53.3317 198.915 53.3317 198.692 53.3317C198.284 53.3317 197.914 53.3317 197.506 53.3317V53.3686ZM197.765 51.8184C198.729 51.8184 198.915 51.7077 198.766 51.154C198.47 50.1575 198.21 49.1978 197.914 48.2013C197.877 48.0536 197.877 47.8691 197.691 47.8322C197.469 47.7953 197.432 48.0167 197.395 48.1644C197.098 49.0871 196.838 50.0468 196.542 50.9695C196.282 51.8184 196.393 51.966 197.283 51.8184C197.469 51.8184 197.691 51.8184 197.728 51.8184H197.765Z" fill="#A01D25"/>
<path d="M83.4524 57.3548C82.8963 57.281 82.0435 57.1703 81.1536 57.0595C80.8199 57.0226 80.6345 56.8012 80.4862 56.5059C80.3008 56.1368 80.1154 55.7677 79.93 55.3986C79.7817 55.0664 79.7446 54.7343 80.1154 54.4759C80.4491 54.2544 80.7828 54.2544 81.0424 54.5497C81.6356 55.1403 82.3401 55.5094 83.1187 55.7308C84.0086 55.9892 85.121 55.6201 85.5288 54.8819C86.0479 53.9592 85.8255 52.6673 85.0468 52.0768C84.3053 51.4493 83.3412 51.2279 82.4884 50.7849C81.339 50.1944 80.4862 49.3824 80.1525 48.0536C79.5592 45.8391 81.1165 43.1078 84.1569 43.3292C84.639 43.3661 85.1581 43.4031 85.6401 43.44C86.1592 43.4769 87.1603 44.7687 87.0861 45.2854C87.012 45.7653 86.53 45.9867 86.0479 45.7283C85.5659 45.4331 85.0468 45.1747 84.4906 45.0271C83.4525 44.7318 82.3772 45.2116 82.0064 46.0974C81.6356 46.9094 82.0064 47.7584 82.8963 48.4227C83.7491 49.0502 84.7131 49.3824 85.6401 49.8622C87.2715 50.748 88.6064 52.9626 87.6052 55.1403C87.012 56.3583 85.4918 57.3548 83.4895 57.3917L83.4524 57.3548Z" fill="#A01D25"/>
<path d="M238.329 43.1447C238.552 43.1447 238.774 43.1447 238.997 43.1447C240.146 43.1447 240.702 43.5876 241.11 44.6949C241.221 44.9902 241.221 45.2854 240.925 45.47C240.665 45.6545 240.406 45.6545 240.109 45.47C239.627 45.1747 239.182 44.8794 238.626 44.6949C237.588 44.3996 236.624 44.7687 236.179 45.6545C235.771 46.5034 236.067 47.3893 236.957 48.0167C237.921 48.718 239.034 49.124 240.072 49.7146C241.778 50.748 242.519 52.7042 241.815 54.5497C241.11 56.2844 239.071 57.3548 237.291 57.0965C236.846 57.0226 236.401 56.9488 235.993 56.875C235.029 56.7643 233.991 55.6939 233.954 54.7712C233.954 54.4021 234.176 54.3283 234.399 54.1806C234.621 53.9961 234.844 54.033 235.066 54.1806C235.623 54.6604 236.179 55.1403 236.883 55.3986C238.329 55.9154 239.405 55.3986 239.924 53.9961C240.257 53.1102 239.924 52.1137 238.997 51.597C238.033 51.0433 236.994 50.5635 235.993 50.0098C234.658 49.2347 234.139 48.0167 234.214 46.5404C234.288 45.0271 234.992 43.8829 236.438 43.2554C237.069 42.9971 237.736 43.0709 238.403 43.0709L238.329 43.1447Z" fill="#A01D25"/>
<path d="M178.707 50.4158C178.707 51.966 178.707 53.5162 178.707 55.0664C178.707 55.3617 178.781 55.6201 178.967 55.8784C179.412 56.5797 179.189 56.9857 178.336 57.0226C177.854 57.0226 177.409 57.0226 176.927 57.0226C176.26 56.9857 176.037 56.5428 176.408 55.9892C176.594 55.6939 176.668 55.3617 176.668 55.0295C176.668 51.966 176.668 48.9026 176.668 45.8391C176.668 45.1378 176.445 44.8794 175.704 44.9532C175.11 45.0271 174.517 45.1009 173.961 45.2854C173.59 45.3962 173.219 45.3962 172.997 44.9902C172.774 44.6211 172.997 44.3258 173.219 44.0674C173.998 43.3292 174.628 42.8494 175.963 43.2923C177.261 43.7352 178.855 43.5876 180.264 43.2554C180.709 43.1447 181.191 43.1078 181.636 42.997C182.007 42.9232 182.304 43.034 182.452 43.3661C182.6 43.6614 182.452 43.9198 182.23 44.1412C182.007 44.3627 181.747 44.5842 181.525 44.8056C181.08 45.3223 180.635 45.3962 179.968 45.1009C179.041 44.658 178.633 44.9532 178.633 45.9498C178.633 46.7249 178.633 47.4631 178.633 48.2382C178.633 48.9764 178.633 49.7146 178.633 50.4528L178.707 50.4158Z" fill="#A01D25"/>
<path d="M187.458 57.0595C187.235 57.0595 187.013 57.0595 186.79 57.0595C186.012 57.0595 185.826 56.6905 186.197 56.0261C186.345 55.7308 186.382 55.4355 186.382 55.1033C186.382 51.8553 186.382 48.6073 186.382 45.3962C186.382 44.9902 186.308 44.6211 186.086 44.2889C185.752 43.8091 185.9 43.4769 186.456 43.4031C187.087 43.3292 187.68 43.3292 188.31 43.3661C188.941 43.3661 189.126 43.846 188.792 44.3258C188.496 44.7318 188.496 45.1747 188.496 45.6545C188.496 48.8287 188.496 51.966 188.496 55.1403C188.496 55.3986 188.57 55.657 188.718 55.9154C189.126 56.7643 188.978 57.0226 188.051 57.0595C187.865 57.0595 187.643 57.0595 187.458 57.0595Z" fill="#A01D25"/>
<path d="M181.303 66.8406C181.303 67.3204 181.303 67.8002 181.303 68.3169C181.377 69.4611 181.117 70.6422 181.562 71.7495C181.636 71.9341 181.562 72.0817 181.377 72.1924C181.043 72.3401 180.709 72.4139 180.376 72.1924C180.19 72.0817 180.19 71.9341 180.19 71.7495C180.524 69.7564 180.264 67.7264 180.339 65.7333C180.339 65.2534 180.079 64.9213 179.671 64.6629C179.486 64.5522 179.374 64.4045 179.449 64.1831C179.523 63.9616 179.708 64.0354 179.894 63.9985C180.561 63.8509 180.932 64.22 181.303 64.6629C182.526 66.2131 183.787 67.7264 185.01 69.2397C185.122 69.3504 185.159 69.6088 185.381 69.498C185.567 69.4242 185.53 69.2028 185.492 69.0551C185.418 67.5418 185.641 66.0285 185.381 64.5153C185.307 63.9985 185.641 63.9985 185.974 63.9985C186.234 63.9985 186.642 63.8878 186.568 64.4045C186.308 66.5453 186.494 68.7229 186.419 70.8637C186.419 71.3435 186.642 72.0817 186.123 72.2662C185.641 72.4508 185.418 71.7126 185.122 71.3435C183.972 69.904 182.823 68.4646 181.673 67.0251C181.599 66.9513 181.562 66.8036 181.265 66.8406H181.303Z" fill="#A3A3A4"/>
<path d="M112.337 72.3031C110.186 72.4139 107.924 70.7899 107.961 68.2062C108.035 65.7333 110.001 63.6663 112.3 63.6663C114.561 63.6663 116.86 65.6225 116.749 67.6156C116.601 70.2362 115.229 72.3401 112.337 72.3031ZM112.003 64.5153C111.002 64.5891 110.075 65.1058 109.482 66.1762C109.037 66.9513 109.185 67.7633 109.222 68.5384C109.296 69.7564 110.001 70.6791 111.039 71.1959C112.077 71.7126 113.189 71.7126 114.191 71.0113C115.414 70.1255 115.748 68.9813 115.488 67.468C115.192 65.8809 113.783 64.4783 111.966 64.5153H112.003Z" fill="#A3A3A4"/>
<path d="M175.222 67.9109C175.222 70.2731 173.219 72.3401 170.958 72.3031C168.103 72.2293 166.508 70.5315 166.434 68.0955C166.36 65.8809 168.696 63.6663 170.921 63.7033C173.516 63.7402 175.259 65.4749 175.222 67.9478V67.9109ZM167.546 67.7264C167.695 69.7564 168.733 71.6019 170.995 71.565C172.997 71.565 174.109 70.2362 174.183 68.1324C174.221 66.4715 172.774 64.5153 170.921 64.5153C168.955 64.5153 167.584 65.8071 167.584 67.7264H167.546Z" fill="#A3A3A4"/>
<path d="M73.8491 25.908C75.2581 26.5723 76.7783 26.8676 78.3727 26.7938C78.5952 26.7938 78.8547 26.9045 78.9289 26.6093C79.003 26.3509 78.7806 26.1663 78.5952 26.0925C77.9648 25.7972 77.3345 25.4651 76.7042 25.2805C74.2941 24.5792 72.1064 23.3612 69.7334 22.6969C67.8053 22.1432 66.1739 20.9252 64.2829 20.4085C64.0604 20.3346 63.8009 20.3346 63.5413 20.2977C62.9851 20.2239 62.5402 20.0025 62.0582 19.5965C61.4278 19.0797 60.575 18.8952 59.7964 18.563C57.9795 17.8617 56.1256 17.1235 54.2717 16.4592C52.4178 15.7948 50.4897 15.2042 48.6358 14.5399C47.338 14.06 46.1515 13.4326 44.8167 13.0266C42.5549 12.3622 40.5156 11.1442 38.2538 10.4798C37.2156 10.1845 36.1403 10.2584 35.1021 10.3322C34.6572 10.3322 34.4718 10.7751 34.101 10.9227C34.1381 10.1845 34.7313 10.0738 35.2504 10.0738C36.9931 9.96309 38.6617 10.0738 40.256 10.9596C41.9987 11.8824 43.9639 12.3991 45.8178 13.1373C48.4875 14.1708 51.1942 15.1304 53.9009 16.127C56.4222 17.0497 58.9436 18.0094 61.4649 18.9321C61.4649 18.9321 61.502 18.9321 61.5391 18.9321C63.1705 20.187 65.284 20.3346 67.0638 21.2205C70.03 22.6599 73.1817 23.5827 76.1851 24.8376C77.2974 25.2805 78.4469 25.6496 79.5963 26.0556C80.0783 26.2402 80.5232 26.4985 80.9682 26.7569C81.0794 26.8307 81.2277 26.8676 81.1536 27.0153C81.1165 27.126 80.9682 27.1629 80.857 27.1629C80.5974 27.1629 80.3749 27.1629 80.1154 27.1629C79.8929 27.1629 79.5592 27.0522 79.4109 27.2736C79.1884 27.6058 79.7817 27.6058 79.7817 27.9011C79.448 28.0118 79.0772 27.6427 78.7064 27.9011C78.8918 28.1594 79.2255 28.1594 79.3367 28.4547C78.7806 28.6024 78.4469 28.1594 78.0761 27.938C77.7794 27.7534 78.0019 27.5689 78.2615 27.532C78.521 27.4951 78.8176 27.5689 79.003 27.2736C78.5952 26.9414 78.1132 27.0153 77.6682 26.9783C76.4817 26.9045 75.2581 26.8307 74.1458 26.2771C73.9604 26.1663 73.7008 26.1294 73.7379 25.8342L73.8491 25.908Z" fill="#A01D25"/>
<path d="M143.26 69.9779C141.925 69.9779 141.666 70.2731 141.703 71.5281C141.703 72.2293 141.221 72.5615 140.553 72.3031C140.257 72.1924 140.257 71.971 140.405 71.7126C141.48 69.7195 141.888 67.468 142.593 65.3273C142.667 65.0689 142.667 64.7736 142.63 64.5153C142.63 64.1831 142.667 63.9247 143.038 63.8509C143.371 63.7771 143.631 63.9247 143.742 64.2569C144.002 64.9582 144.298 65.6595 144.447 66.3976C144.891 68.2431 145.374 70.0517 146.152 71.7495C146.189 71.8233 146.226 71.971 146.189 72.0079C145.856 72.3401 145.448 72.3032 145.003 72.2662C144.706 72.2662 144.447 72.0448 144.558 71.7126C144.669 71.3435 144.447 71.0482 144.409 70.716C144.261 69.941 143.742 69.8302 143.223 69.9409L143.26 69.9779ZM143.112 66.4715C142.889 67.2466 142.704 67.8371 142.518 68.4646C142.444 68.6491 142.333 68.8706 142.593 68.9813C142.926 69.092 143.334 69.092 143.668 68.9813C143.853 68.9075 143.853 68.686 143.816 68.5384C143.668 67.9109 143.557 67.2466 143.112 66.5084V66.4715Z" fill="#A3A3A4"/>
<path d="M121.421 68.1693C121.421 66.2131 122.644 64.4414 124.647 63.8878C125.87 63.5556 126.908 63.9985 128.058 64.0354C128.466 64.0354 128.799 64.9213 128.651 65.3273C128.503 65.6594 128.317 65.5487 128.132 65.3642C127.205 64.5891 126.13 64.4045 124.943 64.626C123.534 64.9213 122.422 66.4715 122.607 67.9109C122.719 68.7598 122.941 69.5349 123.46 70.2362C124.535 71.6757 126.686 71.9341 128.317 70.7529C128.466 70.6422 128.614 70.3469 128.874 70.6053C129.059 70.7899 128.985 71.0113 128.874 71.2328C128.762 71.4911 128.614 71.7495 128.503 72.0448C128.429 72.2293 128.28 72.377 128.132 72.3401C126.946 72.0448 125.722 72.5615 124.461 72.1555C122.459 71.5281 121.347 69.8671 121.458 68.2062L121.421 68.1693Z" fill="#A3A3A4"/>
<path d="M46.5223 42.3327C46.2257 42.8125 45.7066 42.997 45.2616 43.2185C42.7774 44.3258 40.3302 45.5807 38.0313 47.0202C36.5482 47.9429 34.8055 48.3489 33.2482 49.1609C32.6549 49.4562 32.0617 49.7884 31.5426 50.1575C31.0606 50.4528 31.246 51.1171 31.5426 51.56C32.3583 52.8888 33.5819 53.0733 34.8426 52.0399C35.1021 51.8553 35.3246 51.6339 35.5841 51.4124C35.9179 51.1171 36.3257 50.8957 36.7336 50.9695C38.328 51.3017 39.4403 50.4528 40.5156 49.5669C41.8875 48.4596 43.4819 47.7584 45.0021 46.9095C46.5594 46.0236 47.8942 44.8794 49.3773 43.9198C49.8223 43.6245 50.3414 43.3661 50.8234 43.1078C50.7122 43.6983 50.156 43.7721 49.7481 44.0305C48.265 44.9902 46.9302 46.1713 45.4099 47.0571C44.1864 47.7584 42.8886 48.2382 41.7392 49.0502C40.8864 49.6407 40.0706 50.2682 39.2178 50.8588C38.5504 51.3017 37.8459 51.56 36.9931 51.3755C36.2516 51.2279 35.51 51.6339 35.1763 52.2613C35.065 52.4459 35.1763 52.6304 35.2504 52.815C35.5471 53.5901 36.1774 54.1806 36.2886 55.1772C35.7325 54.8081 35.2875 54.5128 35.1392 53.9222C35.065 53.5532 34.8055 53.2579 34.6201 52.9626C34.4718 52.7411 34.2493 52.6673 33.9898 52.7781C32.6549 53.2948 31.3943 52.6304 31.0977 51.154C30.9493 50.4897 30.6527 50.0098 30.0965 49.6038C29.5774 49.1978 29.2437 48.6811 29.0583 48.0536C29.5404 48.1644 29.5404 48.718 29.9111 48.9764C30.2078 49.1978 30.4302 49.4931 30.801 49.2717C31.2089 49.0502 30.9123 48.718 30.801 48.4596C30.5786 47.6845 29.9482 47.0571 29.7999 46.2451C30.0965 46.2451 30.1707 46.5034 30.2448 46.6511C30.6527 47.4631 31.0235 48.2751 31.3572 49.124C31.6168 49.7515 31.8392 49.8991 32.3954 49.4931C32.8774 49.1609 33.3965 48.8656 33.9527 48.6811C36.6965 47.6845 39.1066 46.0974 41.6279 44.7318C43.1852 43.846 44.8908 43.1816 46.5223 42.4434V42.3327Z" fill="#A01D25"/>
<path d="M81.2277 69.9779C80.1154 69.9779 79.5963 70.5684 79.7817 71.6757C79.8188 71.8971 79.93 72.2293 79.5963 72.2662C79.2626 72.3401 78.8547 72.4139 78.521 72.1924C78.2615 71.971 78.521 71.7495 78.6323 71.565C79.0401 70.9375 79.1513 70.1993 79.3738 69.498C79.7817 68.1324 80.2266 66.7298 80.6716 65.3642C80.7457 65.1058 80.7828 64.8844 80.7828 64.626C80.7828 64.2938 80.7086 63.9247 81.1536 63.8878C81.5985 63.8509 81.8952 64.0723 82.0435 64.5153C82.303 65.4749 82.5996 66.4346 82.8963 67.3942C83.3783 68.8706 83.6008 70.3839 84.3423 71.7495C84.3794 71.8602 84.4165 72.0448 84.3423 72.0817C83.9716 72.4877 83.4525 72.3032 83.0075 72.2662C82.6367 72.2662 82.6738 71.9341 82.7109 71.6757C82.8592 70.5315 82.3772 69.9779 81.1907 69.9779H81.2277ZM81.2277 69.2397C82.0435 69.2397 82.2289 69.092 82.0435 68.28C81.9322 67.7264 81.7098 67.2096 81.5244 66.6929C81.4873 66.5453 81.4873 66.3607 81.2648 66.3976C81.1536 66.3976 81.0794 66.5453 81.0424 66.656C80.894 67.2096 80.7087 67.8002 80.5603 68.3538C80.3379 69.1289 80.412 69.2397 81.1907 69.2397H81.2277Z" fill="#A3A3A4"/>
<path d="M103.252 70.0148C103.252 71.3435 101.918 72.5246 100.657 72.4508C100.286 72.4508 99.9153 72.377 99.5445 72.3401C99.0625 72.2662 98.7288 72.0079 98.5805 71.5281C98.5063 71.2697 98.3951 70.9375 98.7288 70.716C99.0254 70.5315 99.1367 70.8637 99.322 70.9744C99.9153 71.3804 100.509 71.6757 101.25 71.3435C102.14 70.9744 102.362 70.1255 101.769 69.3873C101.287 68.7968 100.546 68.5753 99.9153 68.2431C98.7659 67.6526 98.2097 66.4345 98.6546 65.2904C99.0254 64.3307 100.286 63.7402 101.398 63.9247C101.992 64.0354 102.548 64.0723 102.622 64.8105C102.659 65.2165 102.511 65.4011 102.103 65.2165C101.806 65.0689 101.547 64.8474 101.176 64.7736C100.434 64.5891 99.8411 64.8105 99.5816 65.5118C99.3591 66.1393 99.5816 66.6191 100.138 67.0251C100.879 67.5418 101.732 67.7633 102.4 68.3907C102.919 68.9075 103.067 69.498 103.178 70.0886L103.252 70.0148Z" fill="#A3A3A4"/>
<path d="M90.9423 72.3401C90.6086 72.3401 90.2378 72.3032 89.9041 72.2662C89.1996 72.1924 89.1255 71.6019 89.0142 71.0851C88.9771 70.9006 89.1255 70.753 89.2738 70.6791C89.4592 70.5684 89.6075 70.6791 89.7187 70.8268C90.0153 71.159 90.3491 71.3435 90.794 71.4542C91.4985 71.6388 92.3142 71.3066 92.5738 70.716C92.8704 70.0517 92.4996 69.5349 92.0547 69.092C91.5726 68.6491 90.9794 68.4277 90.3861 68.2062C88.8659 67.6157 88.7547 65.4011 89.7929 64.4414C90.3491 63.9247 92.2771 63.6663 92.7962 64.1093C93.0558 64.3307 93.3895 64.7367 93.1299 65.1427C92.8704 65.5118 92.5738 65.1427 92.3142 64.9951C92.203 64.9213 92.0917 64.8844 91.9805 64.8474C91.2389 64.5153 90.4974 64.7367 90.2007 65.3642C89.9412 65.9178 90.2749 66.7298 90.8681 67.062C91.3131 67.3204 91.7951 67.5418 92.2401 67.7633C93.7973 68.5753 93.9827 69.5718 93.649 70.753C93.3524 71.8602 92.4625 72.377 90.9794 72.377L90.9423 72.3401Z" fill="#A3A3A4"/>
<path d="M152.826 68.0955C152.9 69.2397 152.678 70.4946 153.086 71.7126C153.16 71.971 153.086 72.1555 152.752 72.1555C152.455 72.1555 152.159 72.1555 151.862 72.1555C151.491 72.1555 151.38 71.9341 151.491 71.565C151.862 69.904 151.677 68.2062 151.64 66.5084C151.64 66.1762 151.603 65.8809 151.64 65.5487C151.751 64.9951 151.566 64.6998 150.935 64.7367C150.676 64.7367 150.379 64.8105 150.12 64.8474C149.934 64.8474 149.749 64.9582 149.638 64.8105C149.526 64.626 149.526 64.4045 149.638 64.2569C149.934 63.9247 150.194 63.5925 150.75 63.7402C151.825 63.9985 152.938 63.8509 154.05 63.7032C154.346 63.6663 154.643 63.6294 154.866 63.8509C155.014 63.9985 154.977 64.1831 154.866 64.3307C154.643 64.5891 154.458 64.9213 154.05 64.8843C153.864 64.8843 153.716 64.8105 153.531 64.7736C152.975 64.6998 152.678 64.8474 152.715 65.4749C152.715 66.3238 152.715 67.1358 152.715 68.0955H152.826Z" fill="#A3A3A4"/>
<path d="M134.621 63.9616C135.436 63.9616 135.399 63.9616 135.251 64.8105C135.177 65.2165 135.214 65.6225 135.214 66.0655C135.214 67.6526 135.214 69.2397 135.214 70.8637C135.214 71.0113 135.214 71.159 135.214 71.3066C135.214 71.565 135.696 71.8233 135.325 72.0817C134.954 72.3031 134.472 72.2293 134.027 72.1555C133.842 72.1555 133.805 71.9341 133.805 71.7495C134.065 69.5718 133.879 67.3942 133.916 65.2165C133.916 65.1058 133.916 65.032 133.916 64.9213C133.731 64.0354 133.731 63.9985 134.658 63.9985L134.621 63.9616Z" fill="#A3A3A4"/>
<path d="M160.539 72.1924C160.131 72.1924 159.871 72.2293 159.908 71.4542C160.057 69.2766 160.057 67.0989 159.908 64.9213C159.871 64.1831 159.871 63.9616 160.613 63.9616C161.243 63.9616 161.354 64.1093 161.354 64.8105C161.28 67.062 161.058 69.3504 161.503 71.6388C161.614 72.1555 161.577 72.1924 160.576 72.1924H160.539Z" fill="#A3A3A4"/>
<path d="M55.0133 39.2692C55.4953 38.6417 56.4593 38.6417 56.8672 37.9035C56.9784 37.719 57.3121 37.6452 57.1267 37.3868C56.9413 37.0915 56.7189 37.313 56.4964 37.3868C53.3818 38.937 50.156 40.3027 47.1897 42.1481C47.0785 42.2219 46.9672 42.2219 46.856 42.2219C47.9684 41.1885 49.3032 40.4872 50.638 39.8228C52.6032 38.8263 54.7166 38.0512 56.6447 36.9439C56.9043 36.7963 57.238 36.7224 57.4234 37.0546C57.5717 37.2761 57.6829 37.4975 58.0166 37.3868C58.3503 37.2761 58.3132 36.9808 58.3132 36.6855C58.3132 35.7997 58.3132 34.9139 58.3132 34.0281C58.3132 33.8435 58.1649 33.5113 58.5728 33.4375C58.5728 34.5448 58.6099 35.689 58.6099 36.7963C58.6099 37.313 58.3503 37.6821 57.7571 37.7559C58.0537 37.9405 58.5357 37.4606 58.647 38.0143C58.7211 38.3465 58.7953 38.7525 58.647 39.0846C58.647 39.0846 58.5728 39.0477 58.5357 39.0108C58.3874 38.7525 58.684 38.2726 58.202 38.2357C57.72 38.1988 57.2009 38.0143 56.7189 38.4572C56.2369 38.9001 55.6807 39.1585 55.0503 39.2692H55.0133Z" fill="#A01D25"/>
<path d="M64.1716 27.4951C63.8379 26.2402 64.0604 24.9852 64.0233 23.7303C64.0233 23.435 64.32 23.3612 64.5795 23.3243C65.5806 23.1029 66.5447 23.3243 67.2862 23.9518C67.8053 24.3947 68.3244 24.5054 68.9548 24.5792C69.1772 24.5792 69.5109 24.5792 69.6593 24.7638C70.2154 25.3543 70.8829 25.2067 71.5132 25.1698C72.3289 25.096 73.0705 25.1698 73.6637 25.8342C72.6255 25.3912 71.439 25.6865 70.4379 25.3912C69.4368 25.096 68.5098 24.8007 67.4346 24.9114C67.1379 24.9114 66.8042 24.7269 66.4705 24.6161C66.8784 24.0256 66.7671 23.8041 65.9885 23.6196C65.5436 23.5089 65.0245 23.3981 64.5795 23.7672C64.8391 24.0256 65.2469 23.841 65.4694 24.1363C65.4694 24.1363 65.4323 24.247 65.3952 24.247C64.0975 24.284 64.2458 24.247 64.2087 25.6127C64.2087 26.2402 64.3941 26.9045 64.0975 27.532L64.1716 27.4951Z" fill="#A01D25"/>
<path d="M80.7457 28.1964C81.5615 28.5285 82.4143 28.6762 83.2671 28.75C83.3412 28.75 83.4154 28.7869 83.4895 28.8238C83.7491 28.9715 84.194 29.1191 84.0457 29.4513C83.9345 29.7466 83.4895 29.6727 83.1929 29.5251C82.2659 29.0822 81.1536 29.2298 80.2266 28.75C80.1154 28.7131 80.0412 28.6393 79.93 28.5655C80.1895 28.3809 80.7457 28.8607 80.7828 28.1594L80.7457 28.1964Z" fill="#A01D25"/>
<path d="M46.6706 84.8524C48.8212 84.1511 50.8605 83.2283 52.9369 82.3056C53.493 82.0472 53.938 81.6043 54.4571 81.3091C54.6796 81.1983 54.902 81.0138 55.1987 81.0507C54.5683 81.8627 53.6784 82.2687 52.7515 82.6747C51.0088 83.4129 49.2661 84.2249 47.4493 84.8524C47.1897 84.9262 46.9302 85.1846 46.6706 84.8524Z" fill="#A01D25"/>
<path d="M64.32 41.9636C64.32 40.6718 64.2458 39.3799 64.32 38.0881C64.357 36.4641 64.2087 34.8032 64.357 33.1791C64.6537 33.2899 64.5424 33.5482 64.5424 33.7328C64.5424 36.3164 64.5424 38.8632 64.5424 41.4469C64.5424 41.6314 64.6537 41.9267 64.32 42.0005V41.9636Z" fill="#A01D25"/>
<path d="M65.2098 73.7795C65.4323 72.7092 65.5435 71.6388 65.0986 70.6053C64.5424 69.4242 64.8391 68.2431 64.9874 67.062C65.0615 66.5084 64.9132 65.9178 65.1728 65.4011C65.5065 66.3976 65.1728 67.4311 65.0986 68.4277C65.0986 69.1658 65.0245 69.8671 65.3211 70.5684C65.6919 71.4173 65.6177 72.3032 65.5806 73.1521C65.5806 73.4104 65.5806 73.7057 65.1728 73.7426L65.2098 73.7795Z" fill="#A01D25"/>
<path d="M36.6965 36.5379C36.437 37.0915 36.1403 37.5344 35.4729 37.7559C34.1752 38.1988 33.0999 39.0477 31.9505 39.7121C31.8392 39.7859 31.728 39.8967 31.5426 39.8228C31.9505 39.1954 32.6549 39.0108 33.2482 38.6048C34.3606 37.8297 35.6583 37.3868 36.6965 36.501V36.5379Z" fill="#A01D25"/>
<path d="M92.1288 30.4847C93.0929 30.374 93.8715 30.78 94.6872 31.1491C94.7985 31.186 94.7985 31.3337 94.7614 31.4813C94.7243 31.592 94.6131 31.6289 94.5389 31.592C93.6861 31.3337 92.7962 31.1491 92.1288 30.4847Z" fill="#A01D25"/>
<path d="M59.611 58.0561C59.9447 59.6801 60.2043 61.3041 59.4998 62.8912C59.2773 62.5591 59.4998 62.19 59.4998 61.8578C59.4256 60.8243 59.7222 59.7908 59.4998 58.7205C59.4627 58.5359 59.3514 58.2407 59.6481 58.0561H59.611Z" fill="#A01D25"/>
<path d="M58.5728 39.6752C58.5728 41.5207 58.4986 43.3661 58.1649 45.1747C57.8683 44.9532 57.9795 44.6211 58.0166 44.3627C58.1279 42.9232 58.3132 41.4468 58.3132 40.0074C58.3132 39.8228 58.3133 39.6383 58.5728 39.6752Z" fill="#A01D25"/>
<path d="M46.856 80.94C46.8189 81.1245 46.6335 81.1983 46.4852 81.2721C45.2246 81.7889 44.7425 83.9665 46.0403 84.8524C45.6695 85.1107 45.5212 84.8155 45.3729 84.594C44.9279 83.9296 44.8538 83.3022 45.1504 82.4902C45.447 81.752 45.8549 81.2721 46.5223 80.94C46.6335 80.8661 46.7448 80.8661 46.856 80.94Z" fill="#A01D25"/>
<path d="M58.0537 47.1678C58.1279 48.6811 58.1279 50.1575 58.0537 51.6708C57.9425 51.6708 57.8312 51.6339 57.8312 51.5231C57.72 50.1206 57.6829 48.6811 57.8312 47.2785C57.8312 47.2416 57.9425 47.2047 58.0166 47.1678H58.0537Z" fill="#A01D25"/>
<path d="M65.1728 59.0527C64.8761 57.5763 64.6166 56.063 64.6537 54.5497C65.0986 54.9188 64.802 55.3986 64.9132 55.8415C65.1357 56.7274 65.284 57.6501 65.284 58.6097C65.284 58.7574 65.3211 58.9419 65.1728 59.0896V59.0527Z" fill="#A01D25"/>
<path d="M51.9728 41.8898C52.9739 41.3361 53.5672 40.3027 54.4571 39.6383C54.6054 39.5276 54.7166 39.343 54.9391 39.3799C54.1975 40.4872 53.3818 41.5576 51.9728 41.8898Z" fill="#A01D25"/>
<path d="M56.0144 21.5527C56.4222 21.405 56.793 21.6265 57.1638 21.7003C57.72 21.811 58.2762 21.9587 58.8324 21.9956C59.0919 21.9956 59.5368 21.9218 59.5739 22.2908C59.5739 22.6968 59.1661 22.6969 58.8694 22.7338C58.9436 22.3278 58.7582 22.1801 58.3503 22.1432C57.5346 22.0694 56.756 21.9218 56.0144 21.5157V21.5527Z" fill="#A01D25"/>
<path d="M58.1279 52.3351C58.5357 53.8484 58.9807 55.3248 59.3885 56.8381C58.9807 56.6535 59.0177 56.2475 58.9065 55.9154C58.5357 54.9188 58.1649 53.8853 58.0166 52.815C58.0166 52.6304 57.8683 52.4459 58.1279 52.2982V52.3351Z" fill="#A01D25"/>
<path d="M64.6166 54.033C64.32 52.8888 64.2458 51.7077 64.357 50.5266H64.4312C64.6166 51.6708 64.8391 52.815 64.6166 53.9961V54.033Z" fill="#A01D25"/>
<path d="M80.7457 28.1964C80.7457 28.8607 80.1525 28.3809 79.8929 28.6024C79.7446 28.6024 79.5592 28.5285 79.4109 28.5285C79.2997 28.2333 78.9289 28.2333 78.7806 27.9749C79.1513 27.6796 79.5221 28.0856 79.8558 27.9749C79.9671 27.9749 80.0783 27.9749 80.1895 28.0118C80.2637 28.1225 80.3379 28.1225 80.4491 28.0856C80.5603 28.1225 80.6345 28.1964 80.7457 28.2333V28.1964Z" fill="#A01D25"/>
<path d="M64.32 31.4444C64.0604 30.374 64.1346 29.3405 64.2087 28.2702C64.357 28.2702 64.4312 28.3809 64.3941 28.5285C64.32 29.4882 64.5424 30.4847 64.32 31.4444Z" fill="#A01D25"/>
<path d="M59.4256 63.2603C59.2031 64.1093 59.5739 64.9951 59.4256 65.844C58.9436 65.1796 58.9436 63.6663 59.4256 63.2603Z" fill="#A01D25"/>
<path d="M27.6494 42.2958C27.4269 42.628 27.0932 42.8125 26.7224 42.9601C26.2404 43.1816 25.9808 43.5138 26.0179 44.0305C25.573 43.7721 25.7584 43.44 26.0179 43.2185C26.4999 42.8125 26.9819 42.4065 27.6494 42.3327V42.2958Z" fill="#A01D25"/>
<path d="M30.0965 41.0408C29.355 41.5576 28.5763 41.9636 27.7235 42.2589C28.428 41.6683 29.1696 41.1885 30.0965 41.0408Z" fill="#A01D25"/>
<path d="M64.2829 48.5704C64.0975 47.8322 64.0975 47.1309 64.2829 46.3927C64.4683 47.1309 64.5054 47.8322 64.2829 48.5704Z" fill="#A01D25"/>
<path d="M57.4975 73.7426C56.9043 74.3332 56.0885 74.6284 55.347 74.9975C55.347 74.9237 55.347 74.813 55.347 74.813C56.0515 74.407 56.6818 73.8903 57.4975 73.7426Z" fill="#A01D25"/>
<path d="M38.6617 35.3199C38.1055 35.8735 37.4751 36.2795 36.7336 36.501C37.2898 35.9843 37.883 35.5044 38.6617 35.3199Z" fill="#A01D25"/>
<path d="M59.9818 70.9744C60.6863 72.0448 60.6121 72.2293 59.2773 72.6353C59.2773 72.5984 59.2773 72.5246 59.2773 72.4877C59.9818 72.1924 60.093 71.6388 59.9447 70.9744H59.9818Z" fill="#A01D25"/>
<path d="M54.2346 25.8342C53.7897 26.314 53.2335 26.6093 52.6402 26.7569C53.0481 26.2402 53.6043 25.9449 54.2346 25.8342Z" fill="#A01D25"/>
<path d="M64.2829 45.7653C64.1346 45.2854 64.0975 44.8056 64.2829 44.3258C64.5054 44.8056 64.5054 45.2854 64.2829 45.7653Z" fill="#A01D25"/>
<path d="M50.8234 42.997C51.12 42.7018 51.4537 42.4065 51.7504 42.1112C51.7504 42.7387 51.3425 42.9232 50.8234 42.997Z" fill="#A01D25"/>
<path d="M42.5178 32.9208C42.2954 33.2899 41.9246 33.4375 41.5167 33.5482C41.7021 33.1422 42.0358 32.9208 42.5178 32.9208Z" fill="#A01D25"/>
<path d="M60.6863 77.7658C61.02 77.4705 61.3908 77.2121 61.8357 77.1383C61.5391 77.5443 61.2054 77.8027 60.6863 77.7658Z" fill="#A01D25"/>
<path d="M54.6796 21.2574C55.0503 21.1836 55.4211 21.1467 55.6807 21.4788C55.2728 21.6634 54.9762 21.4788 54.6796 21.2574Z" fill="#A01D25"/>
<path d="M51.6762 77.249C51.4908 77.5443 51.2313 77.6919 50.9346 77.8396C50.9346 77.3597 51.2313 77.2121 51.6762 77.249Z" fill="#A01D25"/>
<path d="M54.42 75.5881C54.1975 75.9203 53.9009 76.1048 53.5301 76.1786C53.7155 75.7726 53.9751 75.5512 54.42 75.5881Z" fill="#A01D25"/>
<path d="M49.1919 79.0207C48.8953 79.2421 48.6358 79.4636 48.3391 79.685C48.3391 79.1314 48.747 79.0207 49.1919 79.0207Z" fill="#A01D25"/>
<path d="M50.4526 28.1225C50.1931 28.4178 49.9335 28.6393 49.5257 28.6762C49.711 28.3071 50.0447 28.1225 50.4526 28.1225Z" fill="#A01D25"/>
<path d="M59.611 69.7564C59.8705 70.0148 59.8705 70.31 59.8705 70.6422C59.4627 70.4577 59.4256 70.1255 59.611 69.7564Z" fill="#A01D25"/>
<path d="M53.1964 76.4001C52.9369 76.6216 52.7144 76.8799 52.3436 76.9168C52.4549 76.4739 52.7886 76.4001 53.1964 76.4001Z" fill="#A01D25"/>
<path d="M43.7414 32.2195C43.5931 32.5148 43.3335 32.6255 42.9998 32.6624C43.1482 32.3671 43.3335 32.1457 43.7414 32.2195Z" fill="#A01D25"/>
<path d="M39.9965 34.5079C39.8111 34.7662 39.5886 34.9877 39.2549 34.9877C39.3291 34.5817 39.6257 34.5079 39.9965 34.5079Z" fill="#A01D25"/>
<path d="M62.5031 76.6954C62.6885 76.437 62.8739 76.2156 63.2076 76.1417C63.1705 76.5477 62.911 76.7323 62.5031 76.6954Z" fill="#A01D25"/>
<path d="M46.6706 30.4109C46.5223 30.6693 46.2627 30.8538 45.929 30.8907C46.0032 30.5217 46.2998 30.4109 46.6706 30.4109Z" fill="#A01D25"/>
<path d="M64.2829 74.9606C64.357 74.6285 64.5795 74.407 64.8391 74.2594C64.8391 74.6654 64.6907 74.9237 64.2829 74.9606Z" fill="#A01D25"/>
<path d="M58.2391 23.2136C58.1279 23.4719 57.9795 23.6565 57.6829 23.6934C57.6829 23.3243 57.9054 23.1767 58.2391 23.2136Z" fill="#A01D25"/>
<path d="M33.174 12.1038C33.0999 12.3622 32.9516 12.5837 32.692 12.6575C32.5808 12.2515 32.8403 12.1038 33.174 12.1038Z" fill="#A01D25"/>
<path d="M31.5797 14.2077C31.5426 14.503 31.3201 14.6506 31.0606 14.7613C30.9864 14.3553 31.1718 14.2077 31.5797 14.2077Z" fill="#A01D25"/>
<path d="M32.5808 12.8051C32.5808 13.1373 32.3583 13.2849 32.0988 13.3957C32.0246 12.9897 32.2842 12.8789 32.5808 12.8051Z" fill="#A01D25"/>
<path d="M63.6896 75.6619C63.8379 75.4405 63.9121 75.1821 64.2087 75.1083C64.2087 75.4774 64.0975 75.6988 63.6896 75.6619Z" fill="#A01D25"/>
<path d="M53.7897 20.999C54.0492 20.9252 54.2346 20.9621 54.3459 21.2205C54.0492 21.4419 53.9009 21.2205 53.7897 20.999Z" fill="#A01D25"/>
<path d="M45.5953 31.1122C45.4841 31.3706 45.2245 31.4444 44.965 31.5551C44.965 31.1122 45.2987 31.1491 45.5953 31.1122Z" fill="#A01D25"/>
<path d="M26.5741 44.6211C26.8336 44.7318 26.9819 44.9163 26.9078 45.2116C26.6112 45.1378 26.4999 44.9163 26.5741 44.6211Z" fill="#A01D25"/>
<path d="M59.1661 72.7092C59.0919 73.0044 58.8323 73.0044 58.6099 73.0782C58.647 72.7092 58.9065 72.7092 59.1661 72.7092Z" fill="#A01D25"/>
<path d="M61.9099 77.1383C62.0582 76.9537 62.2065 76.7692 62.466 76.7692C62.466 77.1383 62.2436 77.249 61.9099 77.1383Z" fill="#A01D25"/>
<path d="M59.7964 78.2456C59.7964 78.2456 60.1301 77.9503 60.3896 77.9503C60.3526 78.3194 60.1301 78.3563 59.7964 78.2456Z" fill="#A01D25"/>
<path d="M58.1649 79.1314C58.3132 78.9468 58.4986 78.8361 58.7582 78.7992C58.7211 79.1683 58.4986 79.2052 58.1649 79.1314Z" fill="#A01D25"/>
<path d="M44.5942 31.7028C44.5201 31.998 44.2605 32.0349 44.038 32.0349C44.1122 31.7397 44.3347 31.6658 44.5942 31.7028Z" fill="#A01D25"/>
<path d="M59.4627 57.1703C59.6481 57.3179 59.6481 57.5025 59.5739 57.687C59.2402 57.5763 59.2773 57.3917 59.4627 57.1703Z" fill="#A01D25"/>
<path d="M59.4627 68.8337C59.4627 68.8337 59.611 69.1659 59.5368 69.3873C59.2402 69.2397 59.2402 69.0551 59.4627 68.8337Z" fill="#A01D25"/>
<path d="M50.8605 77.9134C50.7863 78.0979 50.7122 78.2456 50.4526 78.2456C50.4155 77.9503 50.5268 77.8027 50.8605 77.9134Z" fill="#A01D25"/>
<path d="M49.0807 28.9345C49.0066 29.156 48.8582 29.2667 48.5987 29.2298C48.6728 29.0084 48.7841 28.8238 49.0807 28.9345Z" fill="#A01D25"/>
<path d="M30.6156 40.5241C30.6156 40.8194 30.5044 40.9301 30.2078 40.9301C30.2078 40.6718 30.3561 40.561 30.6156 40.5241Z" fill="#A01D25"/>
<path d="M31.283 40.0074C31.2089 40.1919 31.0976 40.3396 30.8381 40.3396C30.8381 40.0443 30.9493 39.8967 31.283 40.0074Z" fill="#A01D25"/>
<path d="M47.5976 80.4232C47.5605 80.6447 47.4122 80.7554 47.1897 80.7554C47.1897 80.4601 47.3009 80.3125 47.5976 80.4232Z" fill="#A01D25"/>
<path d="M55.8661 80.6816C55.8661 80.6816 56.0515 80.4232 56.2369 80.4232C56.2369 80.6447 56.1998 80.903 55.8661 80.6816Z" fill="#A01D25"/>
<path d="M55.5694 25.096C55.4953 25.3174 55.4211 25.4651 55.1245 25.4281C55.1616 25.2067 55.2728 25.0221 55.5694 25.096Z" fill="#A01D25"/>
<path d="M57.3492 23.9149C57.2751 24.0994 57.2009 24.284 56.9413 24.247C56.9413 23.9518 57.0526 23.8041 57.3492 23.9149Z" fill="#A01D25"/>
<path d="M52.1953 27.0522C52.1211 27.2367 52.0099 27.4213 51.7504 27.3474C51.7874 27.0891 51.8987 26.9414 52.1953 27.0522Z" fill="#A01D25"/>
<path d="M27.9831 46.5773C28.2055 46.6142 28.2797 46.7618 28.2426 46.9464C27.9831 46.9464 27.946 46.7618 27.9831 46.5773Z" fill="#A01D25"/>
<path d="M40.4414 34.2126C40.4414 34.4341 40.256 34.5079 40.0706 34.471C40.0706 34.2495 40.219 34.1388 40.4414 34.2126Z" fill="#A01D25"/>
<path d="M41.1459 33.7697C41.1088 33.9542 40.9605 34.028 40.7751 34.028C40.7751 33.7697 40.9234 33.7328 41.1459 33.7697Z" fill="#A01D25"/>
<path d="M56.311 80.3863C56.3852 80.2018 56.5335 80.128 56.7189 80.128C56.7189 80.4232 56.5335 80.4232 56.311 80.3863Z" fill="#A01D25"/>
<path d="M31.8392 13.7648C31.8392 13.7648 31.8021 13.9862 31.6538 14.0231C31.5055 13.8017 31.5797 13.7279 31.8392 13.7648Z" fill="#A01D25"/>
<path d="M58.1279 73.3366C58.1279 73.3366 58.0166 73.5581 57.8683 73.5212C57.8312 73.2997 57.8683 73.2259 58.1279 73.3366Z" fill="#A01D25"/>
<path d="M80.4491 28.0487C80.4491 28.0487 80.2637 28.0856 80.1896 27.9749C80.3379 27.7904 80.412 27.8642 80.4491 28.0487Z" fill="#A01D25"/>
<path d="M54.8279 25.5389C54.8279 25.5389 54.6796 25.7234 54.5312 25.6496C54.5683 25.4651 54.6796 25.4281 54.8279 25.5389Z" fill="#A01D25"/>
<path d="M56.0144 24.8007C56.0144 24.9852 55.9402 25.0591 55.7548 25.0221C55.7548 24.8376 55.829 24.7269 56.0144 24.8007Z" fill="#A01D25"/>
<path d="M28.5763 47.4262C28.5763 47.4262 28.8359 47.5 28.7988 47.6845C28.6134 47.6845 28.5392 47.6107 28.5763 47.4262Z" fill="#A01D25"/>
<path d="M55.1616 75.1083C55.1616 75.1083 55.0133 75.2928 54.902 75.2928C54.902 75.0714 54.9762 74.9975 55.1616 75.1083Z" fill="#A01D25"/>
<path d="M27.1673 45.5069C27.1673 45.5069 27.3898 45.6545 27.3527 45.8022C27.1303 45.8022 27.0932 45.7283 27.1673 45.5069Z" fill="#A01D25"/>
<path d="M33.8785 11.1811C33.8785 11.1811 33.8044 11.4395 33.619 11.4395C33.619 11.2549 33.6931 11.1811 33.8785 11.1811Z" fill="#A01D25"/>
<path d="M64.32 50.0468C64.32 50.0468 64.2458 49.7884 64.32 49.6407C64.5054 49.7515 64.4683 49.8991 64.32 50.0468Z" fill="#A01D25"/>
<path d="M65.2098 61.8209C65.2098 61.8209 65.1357 61.5625 65.2098 61.4518C65.3582 61.5625 65.3582 61.6732 65.2098 61.8209Z" fill="#A01D25"/>
<path d="M56.756 80.091C56.756 80.091 56.9043 79.9434 57.0155 79.9434C57.0897 80.2387 56.8672 80.091 56.756 80.091Z" fill="#A01D25"/>
<path d="M63.5042 75.8834C63.5042 75.8834 63.5042 75.7357 63.6526 75.6988C63.6896 75.8095 63.7267 75.9203 63.5042 75.8834Z" fill="#A01D25"/>
<path d="M65.2098 62.5591C65.2098 62.5591 65.2098 62.4114 65.2098 62.3376C65.3211 62.4114 65.3211 62.4852 65.2098 62.5591Z" fill="#A01D25"/>
<path d="M57.1638 79.8327C57.1638 79.8327 57.238 79.7219 57.3121 79.7219C57.3121 79.8327 57.3121 79.9434 57.1638 79.8327Z" fill="#A01D25"/>
<path d="M64.32 43.1088V43.034C64.32 43.034 64.3575 43.0714 64.3951 43.1088C64.3951 43.1088 64.3575 43.1088 64.32 43.1088Z" fill="#A01D25"/>
<path d="M50.638 27.9749C50.638 27.9749 50.638 28.0856 50.5268 28.0487C50.5268 27.9749 50.5268 27.938 50.638 27.9749Z" fill="#A01D25"/>
<path d="M64.2829 43.9946V43.9198C64.2829 43.9198 64.3204 43.9572 64.358 43.9946C64.358 43.9946 64.3204 43.9946 64.2829 43.9946Z" fill="#A01D25"/>
<path d="M56.3861 24.5792C56.3861 24.5792 56.3861 24.6914 56.311 24.6166V24.5792H56.3861Z" fill="#A01D25"/>
<path d="M56.8672 24.3209C56.8672 24.3209 56.8301 24.4316 56.756 24.3578C56.756 24.284 56.793 24.284 56.8672 24.3209Z" fill="#A01D25"/>
<path d="M59.129 78.6516C59.129 78.6516 59.2031 78.5408 59.2773 78.5778C59.2773 78.6516 59.2402 78.6885 59.129 78.6516Z" fill="#A01D25"/>
<path d="M49.6369 78.7623C49.6369 78.7623 49.5998 78.8361 49.5257 78.8361C49.5257 78.7623 49.5256 78.7254 49.6369 78.7623Z" fill="#A01D25"/>
<path d="M57.6088 23.7672C57.6088 23.7672 57.6088 23.841 57.5346 23.841C57.5346 23.7672 57.5346 23.7303 57.6088 23.7672Z" fill="#A01D25"/>
<path d="M28.2797 47.0202C28.2797 47.0202 28.3909 47.0202 28.3538 47.1309C28.2797 47.1309 28.2426 47.094 28.2797 47.0202Z" fill="#A01D25"/>
<path d="M27.6864 46.1713H27.724C27.724 46.1713 27.724 46.1713 27.724 46.2087C27.724 46.2087 27.724 46.2087 27.724 46.2461H27.6864V46.1713Z" fill="#A01D25"/>
<path d="M39.1808 35.0615C39.1808 35.0615 39.1808 35.1722 39.0695 35.0984V35.0615H39.1437H39.1808Z" fill="#A01D25"/>
<path d="M45.7436 30.9646C45.7436 30.9646 45.7436 31.0753 45.6324 31.0384C45.6324 30.9646 45.6324 30.9277 45.7436 30.9646Z" fill="#A01D25"/>
<path d="M37.2527 40.1919C37.3268 40.4503 37.2527 40.5979 37.0302 40.7456C35.6212 41.6314 34.1752 42.5541 32.5808 43.0709C32.21 43.1816 31.8763 43.3661 31.5055 43.5507C30.9123 43.846 30.2819 44.0305 29.5774 43.9567C29.2808 43.9567 28.9842 44.0305 28.8359 44.3258C28.6875 44.6211 28.91 44.8425 29.0954 45.0271C29.3179 45.2485 29.6516 45.3962 29.5033 45.8022C29.2808 45.5807 29.0583 45.3593 28.8359 45.1378C28.2055 44.4365 28.3168 43.8829 29.2437 43.6614C30.4302 43.3661 31.4684 42.9971 32.3212 42.0374C32.7662 41.5207 33.6931 41.4099 34.4718 41.373C35.5471 41.2992 36.437 40.8563 37.2527 40.1919Z" fill="#A01D25"/>
<path d="M45.2987 36.5379C45.2987 36.7594 45.1875 36.8332 45.0021 36.907C42.9628 37.8666 40.8493 38.6786 38.7729 39.4537C38.5875 39.5276 38.4392 39.6383 38.2167 39.5276C38.9212 38.937 39.8111 38.7894 40.6268 38.4572C42.1841 37.7928 43.7414 37.1654 45.2987 36.5379Z" fill="#A01D25"/>
<path d="M58.5728 32.81C58.3133 32.2195 58.3503 31.6658 58.5728 31.0753C58.8324 31.6658 58.7582 32.2195 58.5728 32.81Z" fill="#A01D25"/>
<path d="M58.5357 30.0049C58.2391 29.7096 57.8312 29.7835 57.4604 29.7466C57.6458 29.4513 57.9425 29.3406 58.2762 29.4144C58.5728 29.4882 58.6099 29.7096 58.5357 29.968V30.0049Z" fill="#A01D25"/>
<path d="M54.42 31.3337C54.1234 31.7028 53.8268 32.0349 53.2706 31.9242C53.6043 31.6289 53.9751 31.4075 54.42 31.3337Z" fill="#A01D25"/>
<path d="M52.2324 32.5148C52.1211 32.9946 51.7874 33.0315 51.3796 32.9946C51.602 32.6993 51.8987 32.5886 52.2324 32.5148Z" fill="#A01D25"/>
<path d="M38.1055 39.6014C38.0313 40.0812 37.6235 40.0812 37.2898 40.155C37.4381 39.7859 37.7718 39.7121 38.1055 39.6014Z" fill="#A01D25"/>
<path d="M47.6346 35.1722C47.5234 35.4675 47.3751 35.7628 46.9672 35.5782C47.1156 35.3199 47.338 35.1722 47.6346 35.1722Z" fill="#A01D25"/>
<path d="M51.1942 33.1053C51.1571 33.4744 50.9346 33.5482 50.6009 33.4006C50.7492 33.1791 50.9346 33.1053 51.1942 33.1053Z" fill="#A01D25"/>
<path d="M57.1267 29.8573C57.0526 30.1895 56.8301 30.2633 56.5335 30.1895C56.6818 29.968 56.8672 29.8573 57.1267 29.8573Z" fill="#A01D25"/>
<path d="M56.2369 30.3371C56.1627 30.6693 55.9402 30.7431 55.6436 30.6693C55.7548 30.4109 55.9773 30.3371 56.2369 30.3371Z" fill="#A01D25"/>
<path d="M46.1144 36.0212C46.1144 36.4272 45.8549 36.4272 45.5583 36.3533C45.7066 36.1688 45.892 36.0581 46.1144 36.0212Z" fill="#A01D25"/>
<path d="M52.974 32.0719C52.974 32.404 52.7886 32.3302 52.5661 32.2933C52.6402 32.1088 52.7886 32.0719 52.974 32.0719Z" fill="#A01D25"/>
<path d="M54.902 31.0384C54.902 31.3706 54.7166 31.2968 54.4942 31.2598C54.5683 31.0753 54.7166 31.0015 54.902 31.0384Z" fill="#A01D25"/>
<path d="M49.5627 33.9911C49.5627 34.2495 49.4886 34.2864 49.2661 34.1388C49.3032 34.0281 49.4144 33.9542 49.5627 33.9911Z" fill="#A01D25"/>
<path d="M46.5965 35.7628C46.5965 36.0212 46.4852 36.0581 46.2998 35.9104C46.374 35.7628 46.4481 35.7259 46.5965 35.7628Z" fill="#A01D25"/>
<path d="M48.8212 34.4341C48.8212 34.6924 48.747 34.7293 48.5616 34.5817C48.5987 34.471 48.7099 34.3971 48.8212 34.4341Z" fill="#A01D25"/>
<path d="M52.4178 32.404C52.4178 32.404 52.3807 32.5148 52.3065 32.4779C52.3065 32.404 52.3436 32.3671 52.4178 32.404Z" fill="#A01D25"/>
</g>
<defs>
<clipPath id="clip0_2110_3">
<rect width="232" height="75" fill="white" transform="translate(10 10)"/>
</clipPath>
</defs>
</svg>
